<svg width="55" height="55" viewBox="0 0 55 55" fill="none" xmlns="http://www.w3.org/2000/svg">
<g clip-path="url(#clip0_42_2)">
<path d="M27.4998 53.3958C41.8017 53.3958 53.3957 41.8018 53.3957 27.5C53.3957 13.1981 41.8017 1.60413 27.4998 1.60413C13.198 1.60413 1.604 13.1981 1.604 27.5C1.604 41.8018 13.198 53.3958 27.4998 53.3958Z" stroke="#45474B" stroke-opacity="0.72549" stroke-width="3" stroke-miterlimit="10" stroke-linecap="round" stroke-linejoin="round"/>
<path d="M27.4998 34.1459C19.479 34.1459 12.604 38.7292 9.1665 45.6042C12.4686 39 20.3957 34.1459 27.4998 34.1459ZM27.4998 34.1459C34.604 34.1459 42.6758 39.5 45.8332 45.6042C42.3957 38.9584 35.5207 34.1459 27.4998 34.1459Z" stroke="#45474B" stroke-opacity="0.72549" stroke-width="3" stroke-miterlimit="10" stroke-linecap="round" stroke-linejoin="round"/>
<path d="M27.5 28.1875C32.0563 28.1875 35.75 24.4938 35.75 19.9375C35.75 15.3812 32.0563 11.6875 27.5 11.6875C22.9437 11.6875 19.25 15.3812 19.25 19.9375C19.25 24.4938 22.9437 28.1875 27.5 28.1875Z" stroke="#45474B" stroke-opacity="0.72549" stroke-width="3" stroke-miterlimit="10" stroke-linecap="round" stroke-linejoin="round"/>
</g>
<defs>
<clipPath id="clip0_42_2">
<rect width="55" height="55" fill="white"/>
</clipPath>
</defs>
</svg>
