<svg width="145" height="153" viewBox="0 0 145 153" fill="none" xmlns="http://www.w3.org/2000/svg">
<path d="M72.5 148.5C110.186 148.5 140.5 117.027 140.5 78.5C140.5 39.9726 110.186 8.5 72.5 8.5C34.8141 8.5 4.5 39.9726 4.5 78.5C4.5 117.027 34.8141 148.5 72.5 148.5Z" fill="#524C42" stroke="#F97300" stroke-width="9"/>
<path d="M58.7477 107.394L64.7233 103.944L72.8594 111.596C76.6372 112.159 81.4474 110.754 87.2902 107.381C91.0747 105.196 93.5207 102.456 94.6282 99.1604C95.802 95.8268 95.5264 92.6662 93.8014 89.6784C92.0381 86.6242 89.1282 84.4976 85.0719 83.2984C81.0436 81.9945 75.3568 81.958 68.0115 83.1889C54.0998 85.4666 44.9015 82.7213 40.4165 74.953C36.6598 68.4463 35.8623 62.3115 38.0238 56.5487C40.1469 50.7195 44.1963 46.0798 50.1719 42.6298C57.4754 38.4132 64.4257 36.0382 71.0229 35.5048C71.7738 35.4254 72.5106 35.3983 73.2334 35.4236L81.1109 49.0679L75.35 52.6595L68.4018 45.915C64.8746 46.0924 60.92 47.4461 56.5379 49.9761C47.5745 55.1511 44.7412 60.5936 48.0378 66.3036C49.8778 69.4905 52.6063 71.4563 56.2232 72.201C59.8681 72.8409 64.7835 72.6146 70.9693 71.522C86.0966 68.8966 96.5544 72.5967 102.343 82.6224C105.716 88.4652 106.498 94.3433 104.689 100.257C102.88 106.17 98.2576 111.273 90.8214 115.567C87.4352 117.522 83.8331 119.026 80.015 120.08C74.4015 121.55 70.0532 122.069 66.9702 121.635L58.7477 107.394Z" fill="#E2DFD0"/>
</svg>
