<svg width="531" height="153" viewBox="0 0 531 153" fill="none" xmlns="http://www.w3.org/2000/svg">
<path d="M72.5 148.5C110.186 148.5 140.5 117.027 140.5 78.5C140.5 39.9726 110.186 8.5 72.5 8.5C34.8141 8.5 4.5 39.9726 4.5 78.5C4.5 117.027 34.8141 148.5 72.5 148.5Z" fill="#524C42" stroke="#F97300" stroke-width="9"/>
<path d="M58.7477 107.394L64.7233 103.944L72.8594 111.596C76.6372 112.159 81.4474 110.754 87.2902 107.381C91.0747 105.196 93.5207 102.456 94.6282 99.1604C95.802 95.8268 95.5264 92.6662 93.8014 89.6784C92.0381 86.6242 89.1282 84.4976 85.0719 83.2984C81.0436 81.9945 75.3568 81.958 68.0115 83.1889C54.0998 85.4666 44.9015 82.7213 40.4165 74.953C36.6598 68.4463 35.8623 62.3115 38.0238 56.5487C40.1469 50.7195 44.1963 46.0798 50.1719 42.6298C57.4754 38.4132 64.4257 36.0382 71.0229 35.5048C71.7738 35.4254 72.5106 35.3983 73.2334 35.4236L81.1109 49.0679L75.35 52.6595L68.4018 45.915C64.8746 46.0924 60.92 47.4461 56.5379 49.9761C47.5745 55.1511 44.7412 60.5936 48.0378 66.3036C49.8778 69.4905 52.6063 71.4563 56.2232 72.201C59.8681 72.8409 64.7835 72.6146 70.9693 71.522C86.0966 68.8966 96.5544 72.5967 102.343 82.6224C105.716 88.4652 106.498 94.3433 104.689 100.257C102.88 106.17 98.2576 111.273 90.8214 115.567C87.4352 117.522 83.8331 119.026 80.015 120.08C74.4015 121.55 70.0532 122.069 66.9702 121.635L58.7477 107.394Z" fill="#E2DFD0"/>
<path d="M166.432 87.76H172.192L174.88 96.688C177.376 98.672 181.44 99.664 187.072 99.664C190.72 99.664 193.632 98.704 195.808 96.784C198.048 94.864 199.168 92.464 199.168 89.584C199.168 86.64 197.952 83.888 195.52 81.328C193.152 78.704 189.056 76.304 183.232 74.128C172.224 69.968 166.72 64.144 166.72 56.656C166.72 50.384 168.704 45.616 172.672 42.352C176.64 39.024 181.504 37.36 187.264 37.36C194.304 37.36 200.32 38.544 205.312 40.912C205.888 41.168 206.432 41.456 206.944 41.776V54.928L201.28 55.12L199.072 47.344C196.448 46 193.024 45.328 188.8 45.328C180.16 45.328 175.84 48.08 175.84 53.584C175.84 56.656 176.992 59.216 179.296 61.264C181.664 63.248 185.312 65.136 190.24 66.928C202.272 71.344 208.288 78.384 208.288 88.048C208.288 93.68 206.4 98.256 202.624 101.776C198.848 105.296 193.376 107.056 186.208 107.056C182.944 107.056 179.712 106.64 176.512 105.808C171.84 104.528 168.48 103.088 166.432 101.488V87.76ZM243.271 106.96C236.039 106.96 230.151 104.912 225.607 100.816C221.127 96.656 218.887 90.608 218.887 82.672C218.887 74.736 221.191 68.464 225.799 63.856C230.407 59.184 235.783 56.848 241.927 56.848C256.519 56.848 263.815 65.488 263.815 82.768H228.199V83.248C228.199 87.792 229.799 91.632 232.999 94.768C236.199 97.904 240.551 99.472 246.055 99.472C248.423 99.472 250.663 99.216 252.775 98.704C254.887 98.128 256.423 97.552 257.383 96.976L258.727 96.208L261.511 101.2C261.319 101.328 261.031 101.552 260.647 101.872C260.327 102.128 259.591 102.576 258.439 103.216C257.287 103.856 256.039 104.432 254.695 104.944C251.303 106.288 247.495 106.96 243.271 106.96ZM254.887 76.624C254.567 72.656 253.255 69.648 250.951 67.6C248.711 65.488 245.767 64.432 242.119 64.432C238.535 64.432 235.559 65.456 233.191 67.504C230.823 69.488 229.287 72.528 228.583 76.624H254.887ZM329.353 99.472C322.633 104.528 314.665 107.056 305.449 107.056C296.809 107.056 289.321 104.272 282.985 98.704C279.913 96.016 277.449 92.496 275.593 88.144C273.737 83.728 272.809 78.736 272.809 73.168C272.809 67.6 273.769 62.48 275.689 57.808C277.673 53.136 280.297 49.328 283.561 46.384C290.281 40.304 298.153 37.264 307.177 37.264C313.961 37.264 319.881 38.64 324.937 41.392V57.04H317.065L315.337 47.056C314.057 45.648 311.401 44.944 307.369 44.944C299.753 44.944 293.769 47.6 289.417 52.912C285.065 58.224 282.889 64.912 282.889 72.976C282.889 80.976 285.129 87.376 289.609 92.176C294.153 96.912 299.881 99.28 306.793 99.28C310.057 99.28 313.289 98.8 316.489 97.84C319.689 96.88 322.057 95.92 323.593 94.96L325.897 93.52L329.353 99.472ZM361.028 106H335.78V101.872L343.844 98.704V64.432H335.78V58.672C338.276 57.456 341.092 56.848 344.228 56.848C347.364 56.848 349.54 57.52 350.756 58.864C351.972 60.208 352.644 62.192 352.772 64.816C353.412 62.896 354.724 61.168 356.708 59.632C359.076 57.776 362.212 56.848 366.116 56.848C367.844 56.848 369.476 57.072 371.012 57.52C372.612 57.968 373.764 58.416 374.468 58.864L375.62 59.536V70.864H369.86L368.612 65.104C368.228 64.72 367.172 64.528 365.444 64.528C363.716 64.528 362.052 64.784 360.452 65.296C358.852 65.744 357.604 66.32 356.708 67.024C354.916 68.56 353.636 70.128 352.868 71.728V98.704L361.028 101.872V106ZM406.97 106H381.722V101.872L389.786 98.704V64.432H381.722V58.672C384.218 57.456 387.098 56.848 390.362 56.848C393.69 56.848 395.93 57.648 397.082 59.248C398.234 60.784 398.81 63.152 398.81 66.352V98.704L406.97 101.872V106ZM399.194 45.808C397.722 47.28 395.93 48.016 393.818 48.016C391.706 48.016 389.914 47.28 388.442 45.808C386.97 44.336 386.234 42.544 386.234 40.432C386.234 38.32 386.97 36.528 388.442 35.056C389.914 33.584 391.706 32.848 393.818 32.848C395.93 32.848 397.722 33.584 399.194 35.056C400.666 36.528 401.402 38.32 401.402 40.432C401.402 42.544 400.666 44.336 399.194 45.808ZM427.421 84.976C427.421 90.48 428.253 94.224 429.917 96.208C431.581 98.192 434.109 99.184 437.501 99.184C440.893 99.184 443.677 98.672 445.853 97.648L447.773 102.448C447.517 102.768 447.133 103.184 446.621 103.696C446.173 104.208 444.989 104.912 443.069 105.808C441.149 106.64 439.037 107.056 436.733 107.056C430.909 107.056 426.397 105.424 423.197 102.16C419.997 98.832 418.397 94 418.397 87.664V65.584H413.309V59.92L422.525 50.704H427.421V58H443.549V65.584H427.421V84.976ZM478.032 106H452.784V101.872L460.848 98.704V64.432H452.784V58.672C455.28 57.456 458.16 56.848 461.424 56.848C464.752 56.848 466.992 57.648 468.144 59.248C469.296 60.784 469.872 63.152 469.872 66.352V98.704L478.032 101.872V106ZM470.256 45.808C468.784 47.28 466.992 48.016 464.88 48.016C462.768 48.016 460.976 47.28 459.504 45.808C458.032 44.336 457.296 42.544 457.296 40.432C457.296 38.32 458.032 36.528 459.504 35.056C460.976 33.584 462.768 32.848 464.88 32.848C466.992 32.848 468.784 33.584 470.256 35.056C471.728 36.528 472.464 38.32 472.464 40.432C472.464 42.544 471.728 44.336 470.256 45.808ZM509.331 106.96C502.227 106.96 496.371 104.88 491.763 100.72C487.219 96.56 484.947 90.544 484.947 82.672C484.947 78.32 485.811 74.448 487.539 71.056C489.267 67.6 491.539 64.88 494.355 62.896C500.179 58.864 506.547 56.848 513.459 56.848C515.571 56.848 517.651 57.104 519.699 57.616C521.747 58.128 523.283 58.64 524.307 59.152L525.843 60.016V71.344H519.987L518.643 65.488C517.747 64.784 516.019 64.432 513.459 64.432C507.955 64.432 503.379 66.096 499.731 69.424C496.083 72.752 494.259 76.944 494.259 82C494.259 87.056 495.827 91.248 498.963 94.576C502.163 97.84 506.387 99.472 511.635 99.472C514.195 99.472 516.563 99.216 518.739 98.704C520.979 98.128 522.547 97.552 523.443 96.976L524.787 96.208L527.571 101.2C527.379 101.328 527.091 101.552 526.707 101.872C526.387 102.128 525.651 102.576 524.499 103.216C523.347 103.856 522.131 104.432 520.851 104.944C517.395 106.288 513.555 106.96 509.331 106.96Z" fill="white"/>
</svg>
